<svg version="1.2" baseProfile="tiny" xmlns="http://www.w3.org/2000/svg" width="400" height="253"><path fill-rule="evenodd" fill="#5FB0E2" d="M68.392 153.966c52.409-33.666 111.818-9.447 141.41 6.758-40.99-16.189-101.085-19.986-141.41-6.758z"/><radialGradient id="a" cx="103.439" cy="40.641" r="190.99" gradientUnits="userSpaceOnUse"><stop offset="0" stop-color="#5FB0E2"/><stop offset=".091" stop-color="#45A1D7"/><stop offset=".208" stop-color="#2C93CD"/><stop offset=".338" stop-color="#1888C4"/><stop offset=".488" stop-color="#0B80BE"/><stop offset=".672" stop-color="#027BBB"/><stop offset="1" stop-color="#007ABA"/></radialGradient><path fill-rule="evenodd" fill="url(#a)" d="M160.398-.219c25.184 0 46.858 14.844 56.537 36.156h-19.701c-8.695-10.728-22.068-17.601-37.065-17.601-14.749 0-27.926 6.644-36.63 17.067.466-.371.941-.74 1.441-1.097 20.59-14.696 48.046 1.503 48.046 1.503s-26.091-7.543-43.733 4.824c-17.641 12.368-14.805 37.13-14.805 37.13s-.116-.327-.294-.924l.23.852c-4.232-3.113-9.358-5.151-14.943-5.684-.665-3.59-1.014-7.288-1.014-11.067-.001-33.779 27.727-61.159 61.931-61.159zm-79.203 139.897v-5.288c16.381-12.093 46.522-27.827 82.763-16.471 55.079 17.26 90.13 40.739 132.692 30.172 42.561-10.567 46.316-33.814 46.316-33.814s-7.511 32.833-49.446 40.039c-41.936 7.206-80.565-.872-129.699-19.189-33.161-12.362-65.26-2.773-82.626 4.551zm0-10.615c3.046-2.06 6.159-4.001 9.005-5.482-1.39-.884-2.691-1.894-3.865-3.048-2.188-2.151-3.862-4.548-5.14-7.022v11.374l.333.327c.549.518 1.122.998 1.713 1.448-.698-.331-1.381-.689-2.047-1.072v3.475h.001zm0-53.025v-19.469c4.004-1.368 8.263-2.197 12.689-2.394-.228 2.223-.346 4.481-.346 6.764 0 3.837.334 7.596.971 11.254-4.84.204-9.372 1.579-13.314 3.845zm0-19.469v19.469c-8.633 4.963-14.437 14.199-14.437 24.775 0 10.575 5.805 19.811 14.437 24.775v3.475c-3.48 2.352-6.871 4.86-9.68 7.014-12.427-7.929-20.655-21.727-20.655-37.424 0-19.488 12.679-36.049 30.335-42.084zm0 56.941c-5.521-10.691-3.618-22.824-3.618-22.824s-9.347 21.433 3.618 34.198v-11.374zm0 20.881c-8.516 6.286-13.314 11.589-13.314 11.589 0 .228 4.949-2.774 13.314-6.301v-5.288z"/><path fill-rule="evenodd" fill="#5FB0E2" d="M219.715 126.017s26.288 13.457 51.011 11.266c24.723-2.19 32.234-10.953 32.234-10.953s-9.076 16.743-32.86 17.681c-23.784.939-50.385-17.368-50.385-17.994z"/><rect x="199.56" y="40.992" fill-rule="evenodd" fill="#5FB0E2" width="22.098" height="22.095"/><rect x="287.315" y="102.211" fill-rule="evenodd" fill="#0088CF" width="17.091" height="17.089"/><rect x="226.188" y="20.745" fill-rule="evenodd" fill="#5FB0E2" width="29.466" height="29.463"/><rect x="311.734" y="71.733" fill-rule="evenodd" fill="#0088CF" width="29.467" height="29.463"/><rect x="258.48" y="52.472" fill-rule="evenodd" fill="#5FB0E2" width="16.429" height="16.426"/><rect x="269.467" y="84.826" fill-rule="evenodd" fill="#5FB0E2" width="16.429" height="16.426"/><rect x="234.887" y="86.466" fill-rule="evenodd" fill="#0088CF" width="16.427" height="16.426"/><rect x="292.473" y="53.039" fill-rule="evenodd" fill="#0088CF" width="16.427" height="16.426"/><g fill="#0A8CCC"><path d="M51.052 211.208c0 4.007-.668 7.686-2.003 11.037-1.336 3.352-3.213 6.236-5.632 8.655-2.419 2.42-5.33 4.297-8.731 5.633s-7.169 2.003-11.302 2.003h-20.865v-54.657h20.865c4.132 0 7.9.675 11.302 2.022 3.402 1.349 6.312 3.227 8.731 5.632 2.419 2.407 4.296 5.286 5.632 8.638 1.335 3.351 2.003 7.03 2.003 11.037zm-10.395 0c0-2.999-.403-5.688-1.209-8.07-.807-2.381-1.953-4.396-3.439-6.048-1.487-1.65-3.295-2.916-5.424-3.799-2.13-.882-4.53-1.322-7.201-1.322h-10.622v38.479h10.621c2.671 0 5.071-.44 7.201-1.323 2.129-.882 3.937-2.147 5.424-3.799 1.486-1.649 2.633-3.666 3.439-6.048.807-2.382 1.21-5.071 1.21-8.07zM66.058 188.453c0 .807-.164 1.562-.492 2.268-.328.706-.762 1.323-1.304 1.853-.542.529-1.178.951-1.909 1.266-.731.315-1.512.473-2.343.473-.807 0-1.569-.157-2.287-.473-.718-.314-1.342-.736-1.871-1.266-.529-.529-.952-1.146-1.267-1.853-.315-.705-.472-1.461-.472-2.268 0-.832.157-1.612.472-2.344.315-.73.737-1.36 1.267-1.89.529-.529 1.153-.951 1.871-1.267.718-.314 1.48-.473 2.287-.473.832 0 1.612.158 2.343.473.731.315 1.367.737 1.909 1.267.542.529.976 1.159 1.304 1.89.328.732.492 1.512.492 2.344zm-1.398 11.302v38.781h-9.336v-38.781h9.336zM84.843 199.074c1.663 0 3.226.17 4.687.511 1.461.34 2.797.838 4.007 1.493h11.15v3.478c0 .579-.151 1.033-.454 1.36-.302.328-.819.555-1.549.681l-3.478.643c.251.655.447 1.348.586 2.078.138.731.208 1.5.208 2.307 0 1.915-.384 3.647-1.153 5.197-.769 1.549-1.827 2.866-3.175 3.949-1.349 1.084-2.948 1.922-4.8 2.514-1.853.593-3.862.889-6.029.889-1.461 0-2.885-.139-4.271-.416-1.209.736-1.814 1.562-1.814 2.475 0 .787.359 1.365 1.077 1.732.718.368 1.663.628 2.835.78s2.5.229 3.988.229c1.487 0 3.011.063 4.574.19 1.562.126 3.086.348 4.574.663 1.486.316 2.816.815 3.988 1.498 1.171.683 2.117 1.612 2.834 2.788.718 1.175 1.078 2.686 1.078 4.53 0 1.72-.422 3.388-1.267 5.007-.844 1.617-2.066 3.059-3.666 4.323-1.601 1.263-3.56 2.28-5.878 3.053-2.319.771-4.964 1.156-7.938 1.156-2.948 0-5.506-.284-7.673-.851s-3.963-1.323-5.386-2.268c-1.424-.945-2.489-2.036-3.194-3.27-.706-1.235-1.059-2.521-1.059-3.855 0-1.814.554-3.34 1.663-4.574s2.646-2.217 4.611-2.948c-.958-.529-1.726-1.234-2.306-2.116s-.869-2.028-.869-3.44c0-.579.101-1.178.302-1.795s.51-1.229.926-1.833c.416-.605.938-1.178 1.568-1.721.63-.541 1.374-1.026 2.23-1.455-1.966-1.058-3.51-2.469-4.63-4.233-1.122-1.764-1.682-3.83-1.682-6.198 0-1.915.384-3.648 1.153-5.198.769-1.549 1.839-2.872 3.213-3.969 1.373-1.096 2.999-1.934 4.876-2.514 1.878-.58 3.926-.87 6.143-.87zm10.244 41.09c0-.771-.227-1.401-.681-1.891-.453-.488-1.071-.868-1.852-1.139-.781-.271-1.695-.469-2.74-.598-1.046-.129-2.154-.193-3.326-.193h-3.629c-1.247 0-2.451-.138-3.61-.416-1.058.58-1.909 1.267-2.551 2.061s-.964 1.707-.964 2.74c0 .681.17 1.316.51 1.909.34.592.882 1.102 1.625 1.53.743.429 1.707.762 2.892 1.002 1.184.239 2.633.359 4.347.359 1.739 0 3.238-.136 4.498-.405 1.26-.271 2.299-.644 3.119-1.119.818-.477 1.417-1.043 1.795-1.698.378-.657.567-1.37.567-2.142zm-10.244-21.964c1.159 0 2.167-.157 3.024-.473.856-.314 1.569-.749 2.136-1.304.567-.554.995-1.222 1.285-2.003.29-.781.435-1.638.435-2.57 0-1.915-.573-3.434-1.72-4.555-1.147-1.121-2.867-1.683-5.16-1.683s-4.013.562-5.159 1.683c-1.147 1.121-1.72 2.64-1.72 4.555 0 .907.145 1.752.435 2.532.289.781.718 1.455 1.285 2.022.567.566 1.285 1.008 2.154 1.322.87.317 1.871.474 3.005.474zM118.105 188.453c0 .807-.164 1.562-.492 2.268-.328.706-.762 1.323-1.304 1.853-.542.529-1.178.951-1.909 1.266-.731.315-1.512.473-2.343.473-.807 0-1.569-.157-2.287-.473-.718-.314-1.342-.736-1.871-1.266-.529-.529-.952-1.146-1.267-1.853-.315-.705-.472-1.461-.472-2.268 0-.832.157-1.612.472-2.344.315-.73.737-1.36 1.267-1.89.529-.529 1.153-.951 1.871-1.267.718-.314 1.48-.473 2.287-.473.832 0 1.612.158 2.343.473.731.315 1.367.737 1.909 1.267.542.529.976 1.159 1.304 1.89.328.732.492 1.512.492 2.344zm-1.398 11.302v38.781h-9.336v-38.781h9.336zM136.21 239.141c-3.352 0-5.935-.95-7.749-2.854-1.814-1.902-2.722-4.529-2.722-7.881v-21.659h-3.931c-.504 0-.939-.163-1.304-.491-.366-.327-.548-.818-.548-1.474v-3.704l6.237-1.021 1.965-10.584c.101-.504.334-.895.699-1.172s.825-.416 1.38-.416h4.838v12.209h10.206v6.652h-10.206v21.017c0 1.209.302 2.154.907 2.835.604.68 1.411 1.021 2.419 1.021.579 0 1.064-.069 1.455-.208.391-.139.73-.283 1.021-.435.29-.151.548-.296.775-.435.227-.139.454-.208.681-.208.277 0 .503.069.68.208.176.139.365.347.567.623l2.797 4.536c-1.361 1.134-2.924 1.991-4.687 2.57-1.763.581-3.59.871-5.48.871zM179.337 238.536h-4.196c-.882 0-1.575-.132-2.079-.396-.504-.265-.882-.8-1.134-1.606l-.832-2.76c-.982.883-1.946 1.657-2.892 2.324-.945.668-1.921 1.229-2.929 1.683-1.008.453-2.079.794-3.213 1.021s-2.394.34-3.78.34c-1.638 0-3.15-.221-4.536-.663-1.386-.442-2.577-1.106-3.572-1.991-.996-.885-1.771-1.984-2.325-3.299-.554-1.315-.832-2.845-.832-4.59 0-1.466.384-2.914 1.153-4.343.769-1.428 2.047-2.717 3.837-3.867 1.789-1.15 4.17-2.105 7.144-2.863 2.973-.759 6.665-1.139 11.075-1.139v-2.284c0-2.615-.548-4.552-1.644-5.809s-2.69-1.886-4.782-1.886c-1.512 0-2.772.177-3.78.529-1.008.354-1.884.75-2.627 1.19-.744.441-1.431.838-2.06 1.19-.63.354-1.323.529-2.079.529-.63 0-1.172-.163-1.625-.491-.454-.327-.819-.73-1.096-1.209l-1.701-2.986c4.46-4.082 9.84-6.124 16.14-6.124 2.268 0 4.29.373 6.066 1.115 1.777.744 3.282 1.776 4.517 3.1 1.234 1.323 2.173 2.904 2.816 4.744s.964 3.855.964 6.048v24.493zm-18.143-5.821c.957 0 1.839-.087 2.646-.26.806-.174 1.569-.435 2.287-.782.718-.347 1.411-.774 2.079-1.283.667-.508 1.342-1.11 2.022-1.805v-6.491c-2.722 0-4.996.171-6.823.514-1.827.343-3.295.781-4.403 1.313-1.109.533-1.896 1.155-2.362 1.866-.467.71-.7 1.483-.7 2.321 0 1.65.485 2.83 1.456 3.541.969.711 2.235 1.066 3.798 1.066zM194.684 182.367v56.169h-9.336v-56.169h9.336zM254.405 211.208c0 4.007-.668 7.717-2.004 11.132-1.336 3.414-3.212 6.369-5.632 8.863-2.419 2.495-5.329 4.441-8.731 5.84-3.401 1.398-7.169 2.098-11.302 2.098s-7.906-.699-11.32-2.098c-3.415-1.398-6.338-3.345-8.77-5.84-2.432-2.494-4.315-5.449-5.65-8.863-1.336-3.415-2.004-7.125-2.004-11.132s.668-7.717 2.004-11.132c1.335-3.414 3.219-6.369 5.65-8.864 2.432-2.494 5.354-4.441 8.77-5.84 3.414-1.398 7.188-2.098 11.32-2.098s7.9.706 11.302 2.117c3.402 1.411 6.312 3.357 8.731 5.84 2.42 2.482 4.296 5.431 5.632 8.845 1.336 3.415 2.004 7.125 2.004 11.132zm-10.432 0c0-2.999-.396-5.688-1.19-8.07-.794-2.381-1.935-4.403-3.421-6.066-1.487-1.663-3.295-2.936-5.424-3.817-2.13-.882-4.53-1.323-7.201-1.323s-5.078.441-7.219 1.323c-2.143.882-3.964 2.154-5.462 3.817-1.5 1.663-2.653 3.686-3.459 6.066-.807 2.382-1.21 5.071-1.21 8.07s.403 5.688 1.21 8.069c.806 2.382 1.959 4.398 3.459 6.048 1.498 1.651 3.319 2.917 5.462 3.799 2.141.883 4.548 1.323 7.219 1.323s5.071-.44 7.201-1.323c2.129-.882 3.937-2.147 5.424-3.799 1.486-1.649 2.627-3.666 3.421-6.048.793-2.381 1.19-5.07 1.19-8.069zM285.361 207.957c-.277.354-.548.63-.812.832-.265.201-.649.302-1.153.302-.479 0-.944-.145-1.398-.435-.453-.289-.995-.617-1.625-.982s-1.38-.693-2.249-.983c-.869-.289-1.946-.435-3.231-.435-1.639 0-3.075.297-4.31.889-1.235.592-2.262 1.442-3.08 2.552-.819 1.108-1.431 2.45-1.834 4.025s-.604 3.357-.604 5.349c0 2.066.221 3.906.661 5.519.441 1.612 1.077 2.967 1.909 4.062.832 1.097 1.839 1.928 3.023 2.495s2.52.851 4.007.851c1.486 0 2.689-.183 3.61-.548.919-.365 1.694-.769 2.324-1.21.63-.44 1.178-.844 1.645-1.209.466-.365.988-.549 1.568-.549.756 0 1.323.29 1.701.87l2.684 3.401c-1.033 1.21-2.154 2.225-3.364 3.043-1.209.819-2.463 1.474-3.761 1.966-1.298.491-2.64.837-4.025 1.039-1.387.201-2.76.303-4.12.303-2.395 0-4.649-.448-6.767-1.342-2.116-.895-3.963-2.198-5.537-3.913-1.575-1.713-2.822-3.811-3.742-6.293-.92-2.481-1.38-5.311-1.38-8.485 0-2.848.41-5.487 1.229-7.919.819-2.432 2.022-4.536 3.61-6.312 1.587-1.776 3.553-3.169 5.896-4.177s5.039-1.512 8.089-1.512c2.897 0 5.437.466 7.616 1.398s4.139 2.268 5.878 4.007l-2.458 3.401zM306.414 199.15c2.444 0 4.693.391 6.747 1.171 2.054.782 3.824 1.922 5.312 3.421 1.486 1.5 2.646 3.34 3.477 5.519.832 2.181 1.248 4.669 1.248 7.466 0 .705-.032 1.291-.095 1.758-.063.466-.177.831-.34 1.096-.165.265-.385.454-.662.567s-.63.17-1.058.17h-23.965c.277 3.981 1.348 6.904 3.213 8.77 1.864 1.864 4.334 2.797 7.408 2.797 1.513 0 2.816-.176 3.912-.529 1.097-.353 2.054-.743 2.873-1.172.818-.428 1.537-.818 2.154-1.172.617-.353 1.216-.529 1.796-.529.378 0 .705.076.982.228.277.15.517.365.719.643l2.721 3.401c-1.033 1.21-2.192 2.225-3.478 3.043-1.285.819-2.627 1.474-4.025 1.966-1.398.491-2.822.837-4.271 1.039-1.45.201-2.854.303-4.215.303-2.697 0-5.204-.448-7.522-1.342-2.318-.895-4.334-2.218-6.047-3.97-1.715-1.751-3.062-3.918-4.045-6.501s-1.475-5.575-1.475-8.978c0-2.646.429-5.134 1.285-7.465.856-2.33 2.085-4.359 3.686-6.086 1.601-1.726 3.554-3.093 5.859-4.101s4.909-1.513 7.806-1.513zm.19 6.691c-2.722 0-4.852.769-6.388 2.306-1.538 1.537-2.521 3.717-2.948 6.539h17.538c0-1.21-.164-2.35-.491-3.421-.328-1.071-.832-2.01-1.512-2.816-.681-.806-1.538-1.442-2.57-1.908-1.035-.468-2.244-.7-3.629-.7zM357.403 238.536h-4.196c-.882 0-1.575-.132-2.079-.396s-.882-.8-1.134-1.606l-.831-2.76c-.983.883-1.947 1.657-2.892 2.324-.945.668-1.922 1.229-2.93 1.683-1.008.453-2.079.794-3.213 1.021s-2.395.34-3.78.34c-1.638 0-3.149-.221-4.535-.663-1.387-.442-2.577-1.106-3.572-1.991-.996-.885-1.771-1.984-2.324-3.299-.555-1.315-.832-2.845-.832-4.59 0-1.466.384-2.914 1.153-4.343.769-1.428 2.047-2.717 3.836-3.867s4.171-2.105 7.145-2.863c2.973-.759 6.665-1.139 11.074-1.139v-2.284c0-2.615-.548-4.552-1.644-5.809-1.097-1.257-2.69-1.886-4.781-1.886-1.513 0-2.772.177-3.78.529-1.008.354-1.884.75-2.627 1.19-.744.441-1.431.838-2.061 1.19-.63.354-1.322.529-2.078.529-.631 0-1.172-.163-1.626-.491-.453-.327-.819-.73-1.096-1.209l-1.701-2.986c4.46-4.082 9.84-6.124 16.14-6.124 2.269 0 4.29.373 6.067 1.115 1.776.744 3.281 1.776 4.517 3.1 1.234 1.323 2.174 2.904 2.816 4.744s.964 3.855.964 6.048v24.493zm-18.143-5.821c.957 0 1.839-.087 2.646-.26.807-.174 1.569-.435 2.287-.782.718-.347 1.411-.774 2.079-1.283.667-.508 1.342-1.11 2.021-1.805v-6.491c-2.721 0-4.995.171-6.822.514s-3.295.781-4.403 1.313c-1.109.533-1.896 1.155-2.362 1.866-.467.71-.699 1.483-.699 2.321 0 1.65.484 2.83 1.455 3.541.969.711 2.235 1.066 3.798 1.066zM362.809 238.536v-38.781h5.708c1.209 0 2.003.566 2.381 1.701l.643 3.062c.781-.807 1.606-1.537 2.476-2.192.87-.655 1.789-1.222 2.76-1.701.97-.479 2.009-.844 3.118-1.096 1.108-.252 2.318-.378 3.629-.378 2.116 0 3.993.358 5.632 1.077 1.638.718 3.005 1.726 4.102 3.023 1.096 1.298 1.928 2.848 2.494 4.649.567 1.802.851 3.786.851 5.953v24.683h-9.336v-24.683c0-2.368-.548-4.201-1.645-5.5-1.096-1.297-2.74-1.946-4.933-1.946-1.613 0-3.125.365-4.536 1.097-1.411.73-2.747 1.726-4.007 2.985v28.047h-9.337z"/></g></svg>